<?xml version="1.0" standalone="no"?><!DOCTYPE svg PUBLIC "-//W3C//DTD SVG 1.1//EN" "http://www.w3.org/Graphics/SVG/1.1/DTD/svg11.dtd"><svg t="1631259339516" class="icon" viewBox="0 0 1024 1024" version="1.1" xmlns="http://www.w3.org/2000/svg" p-id="1096" xmlns:xlink="http://www.w3.org/1999/xlink" width="200" height="200"><defs><style type="text/css"></style></defs><path d="M904.305778 398.421333a16.981333 16.981333 0 0 1-17.180445 16.753778 16.981333 16.981333 0 0 1-17.208889-16.753778V254.151111a16.611556 16.611556 0 0 0-7.68-13.966222 17.550222 17.550222 0 0 0-16.184888-1.479111l-84.394667 34.844444v98.474667c-2.048 17.464889-11.036444 32.938667-24.405333 41.955555 0.199111 3.612444 0.568889 6.997333 0.568888 10.638223 2.787556 84.849778-37.091556 164.295111-102.912 204.771555 0 0-31.317333 30.805333-111.701333 30.805334h-0.113778c-82.090667 0-112.071111-30.805333-112.071111-30.805334l-1.706666-1.024c-64.853333-40.903111-103.964444-119.751111-101.148445-203.946666 0-3.783111 0.426667-7.424 0.625778-11.121778-13.283556-8.846222-22.300444-24.092444-24.462222-41.386667V273.436444L141.710222 214.044444 526.222222 56.888889l377.628445 157.155555h0.455111v0.170667l0.512 0.227556-0.512 0.199111v183.779555z m-381.297778 214.670223c85.703111 1.251556 158.492444-71.082667 168.732444-167.736889a413.326222 413.326222 0 0 1-165.660444 45.425777 442.652444 442.652444 0 0 1-171.832889-45.880888c9.984 96.938667 82.830222 169.500444 168.760889 168.192z m186.368-311.239112l-157.895111 61.582223a70.4 70.4 0 0 1-50.602667 0.142222l-161.365333-61.752889-0.056889 56.490667c0 6.314667 17.265778 14.904889 29.297778 23.864889 2.531556 1.877333 5.091556 3.669333 7.736889 5.347555a288.142222 288.142222 0 0 0 146.318222 42.325333 287.630222 287.630222 0 0 0 146.545778-41.699555c2.958222-1.820444 5.802667-3.783111 8.504889-5.973333 11.463111-8.760889 31.516444-17.237333 31.516444-23.836445v-56.490667zM331.377778 666.055111c8.362667-5.688889 18.887111-7.480889 28.728889-4.864 9.870222 2.616889 18.005333 9.358222 22.243555 18.432l92.529778 197.717333 17.493333-49.976888a16.241778 16.241778 0 0 0-0.938666-12.970667l-21.873778-42.183111a16.497778 16.497778 0 0 1 3.242667-19.484445l40.561777-39.111111a17.521778 17.521778 0 0 1 24.177778 0l40.561778 39.139556c5.290667 5.12 6.599111 12.999111 3.214222 19.484444l-22.044444 42.552889a16.497778 16.497778 0 0 0-1.166223 12.288l14.791112 48.981333 95.203555-196.835555c4.323556-8.96 12.515556-15.587556 22.357333-18.119111a35.128889 35.128889 0 0 1 28.615112 5.091555C788.081778 713.955556 938.666667 828.871111 938.666667 922.538667 938.666667 960.540444 924.444444 995.555556 890.680889 995.555556H161.621333C127.658667 995.555556 113.777778 960.256 113.777778 922.026667c0-96.341333 148.764444-209.009778 217.6-255.971556z" p-id="1097"></path></svg>