<?xml version="1.0" standalone="no"?><!DOCTYPE svg PUBLIC "-//W3C//DTD SVG 1.1//EN" "http://www.w3.org/Graphics/SVG/1.1/DTD/svg11.dtd"><svg t="1631259294447" class="icon" viewBox="0 0 1280 1024" version="1.1" xmlns="http://www.w3.org/2000/svg" p-id="3734" xmlns:xlink="http://www.w3.org/1999/xlink" width="250" height="200"><defs><style type="text/css"></style></defs><path d="M416.00324 704c-4.78 0-9.56 0.7-14.12 2.18C375.96324 714.6 348.70324 720 320.00324 720c-28.7 0-55.96-5.4-81.9-13.82-4.56-1.48-9.32-2.18-14.1-2.18C99.88324 704-0.65676 804.96 0.00324 929.24 0.28324 981.76 43.46324 1024 96.00324 1024h448c52.54 0 95.72-42.24 96-94.76 0.66-124.28-99.88-225.24-224-225.24z m-96-64c106.04 0 192-85.96 192-192s-85.96-192-192-192-192 85.96-192 192 85.96 192 192 192zM1184.00324 0H416.00324c-52.94 0-96 44.5-96 99.18V192c46.84 0 90.2 13.56 128 35.6V128h704v576h-128v-128H768.00324v128h-152.48c38.2 33.38 66.24 77.46 79.38 128H1184.00324c52.94 0 96-44.5 96-99.18V99.18C1280.00324 44.5 1236.94324 0 1184.00324 0z" p-id="3735"></path></svg>